<?xml version="1.0" encoding="UTF-8"?>
<svg xmlns="http://www.w3.org/2000/svg" viewBox="0 0 24 24" fill="none" stroke-width="1.5" stroke-linecap="round" stroke-linejoin="round">
  <defs><linearGradient id="ig_ouro" x1="0%" y1="0%" x2="100%" y2="100%">
  <stop offset="0%" stop-color="#6B5722"/>
  <stop offset="50%" stop-color="#C9A84C"/>
  <stop offset="100%" stop-color="#E8C84A"/>
</linearGradient></defs>
<path d="M7 13V8a2 2 0 0 1 2-2h6a2 2 0 0 1 2 2v5"/>
  <path d="M5 13h14v3a2 2 0 0 1-2 2H7a2 2 0 0 1-2-2v-3z"/>
  <path d="M5 14.5H3a1 1 0 0 0-1 1v1.5"/>
  <path d="M19 14.5h2a1 1 0 0 1 1 1v1.5"/>
  <line x1="8.5" y1="18" x2="8.5" y2="22"/>
  <line x1="15.5" y1="18" x2="15.5" y2="22"/>
</svg>