<?xml version="1.0" encoding="UTF-8"?>
<svg xmlns="http://www.w3.org/2000/svg" viewBox="0 0 24 24" fill="none" stroke-width="1.5" stroke-linecap="round" stroke-linejoin="round">
  <defs><linearGradient id="ig_ouro" x1="0%" y1="0%" x2="100%" y2="100%">
  <stop offset="0%" stop-color="#6B5722"/>
  <stop offset="50%" stop-color="#C9A84C"/>
  <stop offset="100%" stop-color="#E8C84A"/>
</linearGradient></defs>
<path d="M2 9.5A2 2 0 0 1 4 7.5h16a2 2 0 0 1 2 2v1a2.5 2.5 0 0 0 0 5v1a2 2 0 0 1-2 2H4a2 2 0 0 1-2-2v-1a2.5 2.5 0 0 0 0-5v-1z"/>
  <line x1="9" y1="7.5" x2="9" y2="9.5"/>
  <line x1="9" y1="11.5" x2="9" y2="12.5"/>
  <line x1="9" y1="14.5" x2="9" y2="16.5"/>
</svg>