<?xml version="1.0" encoding="UTF-8"?>
<svg id="Camada_1" xmlns="http://www.w3.org/2000/svg" version="1.1" viewBox="0 0 1057.69 504.82">
  <!-- Generator: Adobe Illustrator 29.8.4, SVG Export Plug-In . SVG Version: 2.1.1 Build 6)  -->
  <defs>
    <style>
      .st0 {
        fill: #fff;
      }

      .st1, .st2 {
        fill: #ff0092;
      }

      .st3, .st4 {
        fill: #00e7ff;
      }

      .st5 {
        stroke: #ff9d00;
      }

      .st5, .st6, .st7 {
        fill: none;
        stroke-miterlimit: 10;
      }

      .st2, .st4, .st8 {
        opacity: .5;
      }

      .st6 {
        stroke: #ff0092;
      }

      .st7 {
        stroke: #00e7ff;
      }
    </style>
  </defs>
  <g>
    <g>
      <line class="st6" x1="164.57" y1="81.47" x2="164.57" y2="423.43"/>
      <line class="st6" x1="194.3" y1="81.47" x2="194.3" y2="423.43"/>
      <line class="st6" x1="224.04" y1="81.47" x2="224.04" y2="423.43"/>
      <line class="st6" x1="75.37" y1="81.47" x2="75.37" y2="423.43"/>
      <line class="st6" x1="105.1" y1="81.47" x2="105.1" y2="423.43"/>
      <line class="st6" x1="134.84" y1="81.47" x2="134.84" y2="423.43"/>
      <line class="st6" x1="253.77" y1="81.47" x2="253.77" y2="423.43"/>
      <line class="st6" x1="283.51" y1="81.47" x2="283.51" y2="423.43"/>
      <line class="st6" x1="313.24" y1="81.47" x2="313.24" y2="423.43"/>
      <line class="st6" x1="342.98" y1="81.47" x2="342.98" y2="423.43"/>
      <line class="st6" x1="372.71" y1="81.47" x2="372.71" y2="423.43"/>
      <line class="st6" x1="402.45" y1="81.47" x2="402.45" y2="423.43"/>
      <line class="st6" x1="432.18" y1="81.47" x2="432.18" y2="423.43"/>
      <line class="st6" x1="461.92" y1="81.47" x2="461.92" y2="423.43"/>
      <line class="st6" x1="491.65" y1="81.47" x2="491.65" y2="423.43"/>
      <line class="st6" x1="521.39" y1="81.47" x2="521.39" y2="423.43"/>
      <line class="st6" x1="551.12" y1="81.47" x2="551.12" y2="423.43"/>
      <line class="st6" x1="580.86" y1="81.47" x2="580.86" y2="423.43"/>
      <line class="st6" x1="610.59" y1="81.47" x2="610.59" y2="423.43"/>
      <line class="st6" x1="640.33" y1="81.47" x2="640.33" y2="423.43"/>
      <line class="st6" x1="670.06" y1="81.47" x2="670.06" y2="423.43"/>
      <line class="st6" x1="699.8" y1="81.47" x2="699.8" y2="423.43"/>
      <line class="st6" x1="729.53" y1="81.47" x2="729.53" y2="423.43"/>
      <line class="st6" x1="759.27" y1="81.47" x2="759.27" y2="423.43"/>
      <line class="st6" x1="789" y1="81.47" x2="789" y2="423.43"/>
      <line class="st6" x1="818.73" y1="81.47" x2="818.73" y2="423.43"/>
      <line class="st6" x1="848.47" y1="81.47" x2="848.47" y2="423.43"/>
      <line class="st6" x1="878.2" y1="81.47" x2="878.2" y2="423.43"/>
      <line class="st6" x1="907.94" y1="81.47" x2="907.94" y2="423.43"/>
      <line class="st6" x1="937.67" y1="81.47" x2="937.67" y2="423.43"/>
      <line class="st6" x1="967.41" y1="81.47" x2="967.41" y2="423.43"/>
    </g>
    <g>
      <line class="st6" x1="179.44" y1="81.47" x2="179.44" y2="423.43"/>
      <line class="st6" x1="209.17" y1="81.47" x2="209.17" y2="423.43"/>
      <line class="st6" x1="238.91" y1="81.47" x2="238.91" y2="423.43"/>
      <line class="st6" x1="90.23" y1="81.47" x2="90.23" y2="423.43"/>
      <line class="st6" x1="119.97" y1="81.47" x2="119.97" y2="423.43"/>
      <line class="st6" x1="149.7" y1="81.47" x2="149.7" y2="423.43"/>
      <line class="st6" x1="268.64" y1="81.47" x2="268.64" y2="423.43"/>
      <line class="st6" x1="298.38" y1="81.47" x2="298.38" y2="423.43"/>
      <line class="st6" x1="328.11" y1="81.47" x2="328.11" y2="423.43"/>
      <line class="st6" x1="357.85" y1="81.47" x2="357.85" y2="423.43"/>
      <line class="st6" x1="387.58" y1="81.47" x2="387.58" y2="423.43"/>
      <line class="st6" x1="417.32" y1="81.47" x2="417.32" y2="423.43"/>
      <line class="st6" x1="447.05" y1="81.47" x2="447.05" y2="423.43"/>
      <line class="st6" x1="476.79" y1="81.47" x2="476.79" y2="423.43"/>
      <line class="st6" x1="506.52" y1="81.47" x2="506.52" y2="423.43"/>
      <line class="st6" x1="536.25" y1="81.47" x2="536.25" y2="423.43"/>
      <line class="st6" x1="565.99" y1="81.47" x2="565.99" y2="423.43"/>
      <line class="st6" x1="595.72" y1="81.47" x2="595.72" y2="423.43"/>
      <line class="st6" x1="625.46" y1="81.47" x2="625.46" y2="423.43"/>
      <line class="st6" x1="655.19" y1="81.47" x2="655.19" y2="423.43"/>
      <line class="st6" x1="684.93" y1="81.47" x2="684.93" y2="423.43"/>
      <line class="st6" x1="714.66" y1="81.47" x2="714.66" y2="423.43"/>
      <line class="st6" x1="744.4" y1="81.47" x2="744.4" y2="423.43"/>
      <line class="st6" x1="774.13" y1="81.47" x2="774.13" y2="423.43"/>
      <line class="st6" x1="803.87" y1="81.47" x2="803.87" y2="423.43"/>
      <line class="st6" x1="833.6" y1="81.47" x2="833.6" y2="423.43"/>
      <line class="st6" x1="863.34" y1="81.47" x2="863.34" y2="423.43"/>
      <line class="st6" x1="893.07" y1="81.47" x2="893.07" y2="423.43"/>
      <line class="st6" x1="922.81" y1="81.47" x2="922.81" y2="423.43"/>
      <line class="st6" x1="952.54" y1="81.47" x2="952.54" y2="423.43"/>
      <line class="st6" x1="982.28" y1="81.47" x2="982.28" y2="423.43"/>
    </g>
    <g>
      <line class="st6" x1="982.28" y1="81.47" x2="75.37" y2="81.47"/>
      <line class="st6" x1="982.28" y1="111.21" x2="75.37" y2="111.21"/>
      <line class="st6" x1="982.28" y1="170.68" x2="75.37" y2="170.67"/>
      <line class="st6" x1="982.28" y1="200.41" x2="75.37" y2="200.41"/>
      <line class="st6" x1="982.28" y1="230.14" x2="75.37" y2="230.14"/>
      <line class="st6" x1="982.28" y1="259.88" x2="75.37" y2="259.88"/>
      <line class="st6" x1="982.28" y1="289.61" x2="75.37" y2="289.61"/>
      <line class="st6" x1="982.28" y1="319.35" x2="75.37" y2="319.35"/>
      <line class="st6" x1="982.28" y1="349.08" x2="75.37" y2="349.08"/>
      <line class="st6" x1="982.28" y1="378.82" x2="75.37" y2="378.82"/>
      <line class="st6" x1="982.28" y1="408.55" x2="75.37" y2="408.55"/>
      <line class="st6" x1="982.28" y1="140.94" x2="75.37" y2="140.94"/>
    </g>
    <g>
      <line class="st6" x1="982.28" y1="96.34" x2="75.37" y2="96.34"/>
      <line class="st6" x1="982.28" y1="155.81" x2="75.37" y2="155.81"/>
      <line class="st6" x1="982.28" y1="185.55" x2="75.37" y2="185.55"/>
      <line class="st6" x1="982.28" y1="215.28" x2="75.37" y2="215.28"/>
      <line class="st6" x1="982.28" y1="245.02" x2="75.37" y2="245.02"/>
      <line class="st6" x1="982.28" y1="274.75" x2="75.37" y2="274.75"/>
      <line class="st6" x1="982.28" y1="304.49" x2="75.37" y2="304.49"/>
      <line class="st6" x1="982.28" y1="334.22" x2="75.37" y2="334.22"/>
      <line class="st6" x1="982.28" y1="363.96" x2="75.37" y2="363.96"/>
      <line class="st6" x1="982.28" y1="393.69" x2="75.37" y2="393.69"/>
      <line class="st6" x1="982.28" y1="423.43" x2="75.37" y2="423.43"/>
      <line class="st6" x1="982.28" y1="126.08" x2="75.37" y2="126.08"/>
    </g>
  </g>
  <g>
    <path class="st0" d="M287.66,283.37c5.18,11.75,9.86,19.7,14.04,23.86,4.18,4.16,8.03,6.24,11.54,6.24v2.45h-72.23v-2.45c1.5,0,3.09-.24,4.77-.73,1.67-.49,3.22-1.3,4.64-2.45,1.42-1.14,2.59-2.65,3.51-4.53.92-1.87,1.38-4.2,1.38-6.97,0-4.08-1.34-9.3-4.01-15.66l-6.27-13.46c-3.01,7.34-6.61,14.07-10.78,20.19-4.18,6.12-8.65,11.34-13.42,15.66-4.77,4.32-9.62,7.71-14.55,10.16-4.93,2.45-9.74,3.67-14.42,3.67-9.03,0-15.72-2.08-20.06-6.24-4.35-4.16-6.73-10.16-7.15-17.99-.42-7.83,1-17.38,4.26-28.63,3.26-11.26,7.98-23.98,14.17-38.18l38.87-87.37h2.51l63.2,142.43ZM180.82,263.06c0,8.97,2.51,15.78,7.52,20.44,5.02,4.65,10.95,6.97,17.81,6.97s13.38-2.36,20.06-7.1c6.69-4.73,11.79-11.99,15.3-21.78l-32.6-72.93-18.31,39.65c-3.35,7.67-5.81,14.32-7.4,19.95-1.59,5.63-2.38,10.57-2.38,14.81Z"/>
    <path class="st0" d="M434.24,281.64c.07-.15.16-.29.22-.45,1.28-3.49,2.66-6.97,3.65-10.56,1.05-3.84,1.47-7.8,1.65-11.76.28-6.01.07-12.08.07-18.1v-84.96c0-16.9-15.14-14.87-15.14-14.87h-16.83v2.44c8.35,1.14,14.48,6.62,18.4,16.45,3.92,9.83,5.88,22.46,5.88,37.9v56.78c0,7.48-1.19,14.1-3.58,19.86-2.39,5.77-5.5,10.52-9.33,14.26-3.83,3.74-8.22,6.58-13.17,8.53-4.94,1.95-9.97,2.92-15.08,2.92-1.4,0-2.8-.08-4.2-.22-3.86-.4-7.7-1.33-11.52-2.83-5.2-2.03-9.8-5.08-13.8-9.14-4.01-4.06-7.25-9.14-9.71-15.23-2.47-6.09-3.71-13.2-3.71-21.32v-87.49c0-6.34.77-10.92,2.3-13.77,1.53-2.84,3.75-5.08,6.65-6.7v-2.44h-52.4v2.44c3.07,1.63,5.37,3.86,6.9,6.7,1.53,2.84,2.3,7.43,2.3,13.77v89.2c.17,10.4,2.08,19.54,5.75,27.42,3.66,7.88,8.48,14.46,14.44,19.74,5.96,5.28,12.78,9.22,20.45,11.82,7.67,2.6,15.42,3.9,23.26,3.9,3.06,0,6.09-.21,9.09-.6,4.67-.62,9.27-1.71,13.79-3.3,7.41-2.6,14.02-6.46,19.81-11.58,5.68-5.02,10.29-11.29,13.84-18.81"/>
    <path class="st0" d="M716.5,281.64c.07-.15.16-.29.22-.45,1.28-3.49,2.66-6.97,3.65-10.56,1.05-3.84,1.47-7.8,1.65-11.76.28-6.01.07-12.08.07-18.1v-84.96c0-16.9-15.14-14.87-15.14-14.87h-16.83v2.44c8.35,1.14,14.48,6.62,18.4,16.45,3.92,9.83,5.88,22.46,5.88,37.9v56.78c0,7.48-1.19,14.1-3.58,19.86-2.39,5.77-5.5,10.52-9.33,14.26-3.83,3.74-8.22,6.58-13.17,8.53-4.94,1.95-9.97,2.92-15.08,2.92-1.4,0-2.8-.08-4.2-.22-3.86-.4-7.7-1.33-11.52-2.83-5.2-2.03-9.8-5.08-13.8-9.14-4.01-4.06-7.25-9.14-9.71-15.23-2.47-6.09-3.71-13.2-3.71-21.32v-87.49c0-6.34.77-10.92,2.3-13.77,1.53-2.84,3.75-5.08,6.65-6.7v-2.44h-52.4v2.44c3.07,1.63,5.37,3.86,6.9,6.7,1.53,2.84,2.3,7.43,2.3,13.77v89.2c.17,10.4,2.08,19.54,5.75,27.42,3.66,7.88,8.48,14.46,14.44,19.74,5.96,5.28,12.78,9.22,20.45,11.82,7.67,2.6,15.42,3.9,23.26,3.9,3.06,0,6.09-.21,9.09-.6,4.67-.62,9.27-1.71,13.79-3.3,7.41-2.6,14.02-6.46,19.81-11.58,5.68-5.02,10.29-11.29,13.84-18.81"/>
    <path class="st0" d="M895.53,150.5c1.64-2.97,3.92-5.31,6.85-7.01v-2.55h-43.93l-40.09,65.77-32.11-48.88-11.1-16.89h-40.05v2.55c3.1,1.7,5.43,4.04,6.98,7.01,1.55,2.98,2.33,7.77,2.33,14.4v130.49c0,6.63-.78,11.43-2.33,14.4-1.55,2.97-3.88,5.31-6.98,7.01v2.55h52.97v-2.55c-2.93-1.7-5.17-4.03-6.72-7.01-1.55-2.97-2.33-7.77-2.33-14.4v-134.57l7.22,11.05,27.64,42.29,4.66,7.13,39.9,59.35v28.42c0,2.85.83,5.63,2.39,8.02l1.49,2.28h40.05v-2.55c-2.93-1.7-5.21-4.03-6.85-7.01-1.64-2.97-2.45-7.77-2.45-14.4v-130.49c0-6.63.82-11.42,2.45-14.4ZM858.45,239.75v28l-35.38-53.87-.04-.06,35.42-58.1v84.02Z"/>
    <path class="st0" d="M719.83,315.58c-1.39,1.19-2.81,2.35-4.22,3.6-1.32,1.17-2.67,2.38-4.1,3.41-5.38,3.88-11.66,7.21-18.83,10-7.18,2.79-14.98,5-23.41,6.62-8.43,1.62-17.13,2.43-26.1,2.43-8.25,0-16.5-.77-24.75-2.3-8.25-1.53-16.14-3.92-23.68-7.16-7.53-3.24-14.62-7.52-21.25-12.84-6.64-5.31-12.47-11.75-17.49-19.32-5.02-7.57-9.06-16.35-12.11-26.35-3.05-10-4.84-21.3-5.38-33.91,2.73-1.4,5.32-2.88,7.8-4.44,6.17-3.87,11.61-8.24,16.28-13.12,6.55-6.84,11.39-13.92,14.53-21.21,1.63-3.8,2.78-7.58,3.47-11.35.63-3.48.87-6.94.7-10.4-.36-7.2-2.83-13.65-7.4-19.32-4.57-5.68-11.21-10.27-19.91-13.78-2.67-1.08-5.58-1.99-8.72-2.74-7.08-1.69-15.33-2.53-24.77-2.53h-70.22v2.7c3.23,1.8,6.1,4.28,8.61,7.43,2.51,3.15,3.77,8.15,3.77,15v127.88c0,.23-.01.44-.02.67-.03,2.6-.26,4.93-.66,6.99-.61,3.09-1.63,5.59-3.09,7.47-2.51,3.24-5.38,5.67-8.61,7.3v2.97h60.54v-2.97c-3.05-1.62-5.83-4.05-8.34-7.3-1.46-1.88-2.48-4.38-3.09-7.47-.44-2.24-.68-4.78-.68-7.66v-33.3l6.7-3.57,6.48-3.45c.36,20,3.81,36.98,10.36,50.94,6.55,13.96,15.07,25.27,25.56,33.91,10.49,8.65,22.42,14.95,35.78,18.92,13.36,3.96,28.07,6.64,41.89,6.64,11.48,0,21.61-1.91,32.64-4.35,11.03-2.43,21.25-5.81,30.67-10.13,9.42-4.32,17.66-9.46,24.75-15.4,1.69-1.42,3.28-2.88,4.77-4.38.53-.46,1.03-.95,1.54-1.43v-12.68ZM518.73,240.61c-1.59,1.04-3.25,2.03-4.98,2.94l-8.36,4.35-6.7,3.49v-102.68h15.07c7.17,0,13.18,1.85,18.03,5.54,4.84,3.69,8.48,8.42,10.9,14.19,2.42,5.77,3.59,12.25,3.5,19.46-.06,4.68-.62,9.32-1.66,13.93-.56,2.48-1.26,4.96-2.11,7.42-2.42,7.03-6.01,13.56-10.76,19.59-3.61,4.58-7.92,8.51-12.92,11.79Z"/>
  </g>
  <g class="st8">
    <rect class="st2" x="893.12" y="289.62" width="29.73" height="29.73"/>
    <rect class="st2" x="922.85" y="289.62" width="29.73" height="29.73"/>
    <rect class="st2" x="952.59" y="289.62" width="29.73" height="29.73"/>
  </g>
  <rect class="st4" x="164.55" y="140.86" width="728.59" height="3.5"/>
  <rect class="st4" x="164.55" y="315.92" width="728.59" height="3.5"/>
  <g>
    <rect class="st4" x="164.57" y="334.22" width="29.73" height="29.73"/>
    <rect class="st4" x="194.3" y="334.22" width="29.73" height="29.73"/>
    <rect class="st4" x="224.04" y="334.22" width="29.73" height="29.73"/>
    <rect class="st4" x="253.77" y="334.22" width="29.73" height="29.73"/>
    <rect class="st4" x="283.51" y="334.22" width="29.73" height="29.73"/>
    <rect class="st4" x="313.24" y="334.22" width="29.73" height="29.73"/>
    <rect class="st4" x="342.98" y="334.22" width="29.73" height="29.73"/>
    <rect class="st4" x="372.71" y="334.22" width="29.73" height="29.73"/>
  </g>
  <g class="st8">
    <rect class="st3" x="432.18" y="140.95" width="29.73" height="178.41"/>
    <rect class="st3" x="580.86" y="140.95" width="14.87" height="178.41"/>
    <rect class="st3" x="714.68" y="140.95" width="29.73" height="178.41"/>
    <rect class="st3" x="283.5" y="140.95" width="29.73" height="178.41"/>
  </g>
  <g>
    <path class="st0" d="M188.51,343.84h-1.15v-4.64c-.93-1.19-2.17-2.14-3.73-2.85-1.56-.71-3.33-1.06-5.31-1.06-3.6,0-6.52,1.25-8.77,3.75s-3.38,5.78-3.38,9.83v.4c0,4.06,1.12,7.35,3.36,9.86,2.24,2.51,5.1,3.76,8.59,3.76,2,0,3.81-.35,5.44-1.06,1.63-.71,2.9-1.66,3.81-2.85v-4.64h1.15v5.04c-1.01,1.42-2.45,2.53-4.29,3.35-1.85.82-3.88,1.23-6.11,1.23-3.85,0-6.99-1.36-9.42-4.08-2.43-2.72-3.65-6.26-3.65-10.61v-.36c0-4.37,1.22-7.91,3.67-10.62,2.45-2.71,5.65-4.07,9.61-4.07,2.19,0,4.19.41,5.97,1.23,1.79.82,3.19,1.94,4.22,3.35v5.04Z"/>
    <path class="st0" d="M206.36,335.32v-1.1h8.15v1.1h-3.5v27.53h3.5v1.1h-8.15v-1.1h3.5v-27.53h-3.5Z"/>
    <path class="st0" d="M261.84,334.22v1.1h-3.5v28.63h-1.16l-20.03-27.69-.13.04v26.55h3.5v1.1h-8.17v-1.1h3.5v-27.53h-3.5v-1.1h4.67l20.03,27.63.13-.04v-26.49h-3.5v-1.1h8.15Z"/>
    <path class="st0" d="M279.69,363.95v-1.1h3.5v-27.53h-3.5v-1.1h22.49v5.98h-1.16v-4.88h-16.68v12.58h13.51v1.1h-13.51v13.85h16.68v-4.88h1.16v5.98h-22.49Z"/>
    <path class="st0" d="M338.49,363.95h-.92l-12.76-27.69-.13.04v26.55h3.5v1.1h-8.15v-1.1h3.5v-27.53h-3.5v-1.1h5.15l12.78,27.98h.13l12.82-27.98h5.19v1.1h-3.5v27.53h3.5v1.1h-8.15v-1.1h3.5v-26.69l-.13-.04-12.82,27.84Z"/>
    <path class="st0" d="M373.95,362.85h2.29l11.24-28.63h1.42l11.26,28.63h2.29v1.1h-6.63v-1.1h3.07l-3.07-7.78h-15.27l-3.05,7.78h3.07v1.1h-6.63v-1.1ZM380.98,353.96h14.41l-6.54-16.75-.6-1.67h-.13l-.58,1.67-6.56,16.75Z"/>
  </g>
  <g class="st8">
    <rect class="st1" x="75.37" y="140.95" width="29.73" height="29.73"/>
    <rect class="st1" x="105.1" y="140.95" width="29.73" height="29.73"/>
    <rect class="st1" x="134.84" y="140.95" width="29.73" height="29.73"/>
  </g>
  <g>
    <rect class="st2" x="164.57" y="363.95" width="29.73" height="29.73" transform="translate(558.26 199.38) rotate(90)"/>
    <rect class="st2" x="164.57" y="393.69" width="29.73" height="29.73" transform="translate(587.99 229.11) rotate(90)"/>
  </g>
  <g class="st8">
    <rect class="st2" x="863.34" y="81.4" width="29.73" height="29.73" transform="translate(974.47 -781.94) rotate(90)"/>
    <rect class="st2" x="863.34" y="111.13" width="29.73" height="29.73" transform="translate(1004.2 -752.21) rotate(90)"/>
  </g>
  <g>
    <g>
      <line class="st7" x1="298.38" y1="140.95" x2="298.38" y2="319.35"/>
      <line class="st7" x1="313.24" y1="140.95" x2="313.24" y2="319.35"/>
      <line class="st7" x1="283.51" y1="140.95" x2="283.51" y2="319.35"/>
    </g>
    <g>
      <line class="st7" x1="447.05" y1="140.95" x2="447.05" y2="319.35"/>
      <line class="st7" x1="461.92" y1="140.95" x2="461.92" y2="319.35"/>
      <line class="st7" x1="432.18" y1="140.95" x2="432.18" y2="319.35"/>
    </g>
    <g>
      <line class="st7" x1="595.68" y1="140.95" x2="595.68" y2="319.35"/>
      <line class="st7" x1="580.81" y1="140.95" x2="580.81" y2="319.35"/>
    </g>
    <g>
      <line class="st7" x1="729.58" y1="140.95" x2="729.58" y2="319.35"/>
      <line class="st7" x1="744.44" y1="140.95" x2="744.44" y2="319.35"/>
      <line class="st7" x1="714.71" y1="140.95" x2="714.71" y2="319.35"/>
    </g>
  </g>
  <line class="st7" x1="164.57" y1="349.26" x2="402.44" y2="349.26"/>
  <g>
    <rect class="st5" x="164.57" y="140.86" width="728.57" height="178.49"/>
    <line class="st5" x1="164.55" y1="144.37" x2="893.07" y2="144.37"/>
    <line class="st5" x1="164.57" y1="315.92" x2="893.07" y2="315.92"/>
  </g>
  <rect class="st5" x="164.57" y="334.22" width="237.87" height="29.73"/>
  <g>
    <rect class="st5" x="893.12" y="289.62" width="29.73" height="29.73"/>
    <rect class="st5" x="922.85" y="289.62" width="29.73" height="29.73"/>
    <rect class="st5" x="952.59" y="289.62" width="29.73" height="29.73"/>
  </g>
  <g>
    <rect class="st5" x="863.34" y="81.4" width="29.73" height="29.73" transform="translate(974.47 -781.94) rotate(90)"/>
    <rect class="st5" x="863.34" y="111.13" width="29.73" height="29.73" transform="translate(1004.2 -752.21) rotate(90)"/>
  </g>
  <g>
    <rect class="st5" x="75.37" y="140.95" width="29.73" height="29.73"/>
    <rect class="st5" x="105.1" y="140.95" width="29.73" height="29.73"/>
    <rect class="st5" x="134.84" y="140.95" width="29.73" height="29.73"/>
  </g>
  <g>
    <rect class="st5" x="164.57" y="363.95" width="29.73" height="29.73" transform="translate(558.26 199.38) rotate(90)"/>
    <rect class="st5" x="164.57" y="393.69" width="29.73" height="29.73" transform="translate(587.99 229.11) rotate(90)"/>
  </g>
</svg>